<svg aria-hidden="true" style="width:0;height:0;position:absolute;overflow:hidden" xmlns="http://www.w3.org/2000/svg"><defs><symbol id="icon_close" viewBox="0 0 32 32"><path d="m17.253 16 7.369-7.369a.885.885 0 0 0-.047-1.206.893.893 0 0 0-1.207-.047l-7.369 7.369L8.63 7.369a.892.892 0 0 0-1.262 1.262L14.746 16l-7.378 7.369a.891.891 0 0 0-.05 1.304.89.89 0 0 0 1.304-.05L16 17.254l7.369 7.369a.886.886 0 0 0 1.207-.047.885.885 0 0 0 .047-1.206l-7.369-7.369z"/></symbol><symbol id="icon_play" viewBox="0 0 32 32"><path d="M28.587 14.293 7.947 3.973a1.847 1.847 0 0 0-1.753.112 1.84 1.84 0 0 0-.86 1.532v20.631a1.84 1.84 0 0 0 .87 1.574c.268.166.574.259.889.271.315.012.627-.057.908-.2l20.587-10.32a1.839 1.839 0 0 0 0-3.288v.009z"/></symbol><symbol id="icon_arrow" viewBox="0 0 32 32"><path d="M10.586 3.272a2 2 0 0 0 0 2.828l9.9 9.9-9.9 9.9a1.998 1.998 0 0 0 .025 2.804 2.001 2.001 0 0 0 2.804.025l11.314-11.314a2 2 0 0 0 0-2.828L13.415 3.273a2 2 0 0 0-2.828 0z"/></symbol></defs></svg>