<svg xmlns="http://www.w3.org/2000/svg" aria-hidden="true" style="width:0;height:0;position:absolute;overflow:hidden"><defs><symbol id="icon-product_card_close" viewBox="0 0 32 32"><path d="M18.088 15.585 30.37 3.39a1.464 1.464 0 0 0-.078-1.997 1.489 1.489 0 0 0-2.011-.077L16 13.511 3.719 1.302a1.493 1.493 0 0 0-2.104 0c-.279.277-.436.653-.436 1.044s.157.767.436 1.044l12.296 12.195L1.615 27.78a1.472 1.472 0 0 0-.517 1.061 1.46 1.46 0 0 0 .94 1.426 1.489 1.489 0 0 0 1.666-.413L16 17.659l12.281 12.195a1.49 1.49 0 0 0 2.011-.077 1.468 1.468 0 0 0 .078-1.997L18.088 15.585z"/></symbol><symbol id="icon-eva_menu-fill" viewBox="0 0 32 32"><path fill="#fff" d="M26.733 14.667H5.266c-.7 0-1.267.567-1.267 1.267v.133c0 .7.567 1.267 1.267 1.267h21.467c.7 0 1.267-.567 1.267-1.267v-.133c0-.7-.567-1.267-1.267-1.267zm0 6.666H5.266c-.7 0-1.267.567-1.267 1.267v.133c0 .7.567 1.267 1.267 1.267h21.467c.7 0 1.267-.567 1.267-1.267V22.6c0-.7-.567-1.267-1.267-1.267zm0-13.333H5.266c-.7 0-1.267.567-1.267 1.267V9.4c0 .7.567 1.267 1.267 1.267h21.467c.7 0 1.267-.567 1.267-1.267v-.133C28 8.567 27.433 8 26.733 8z" style="fill:var(--color1,#fff)"/></symbol><symbol id="icon-Cursor" viewBox="0 0 32 32"><path stroke-width="1.333" d="m12.031 9.341 7.289 6.803c1.247 1.164.558 3.255-1.138 3.449l-2.745.314a3.331 3.331 0 0 0-1.851.834l-1.582 1.424c-1.287 1.158-3.338.245-3.338-1.487v-9.876c0-1.749 2.086-2.655 3.365-1.462z"/></symbol><symbol id="icon-btn_vector" viewBox="0 0 22 32"><path d="M3.103.726a2.4 2.4 0 0 0 0 3.394L14.983 16 3.103 27.88a2.398 2.398 0 0 0 1.705 4.067 2.393 2.393 0 0 0 1.688-.674l13.577-13.577a2.4 2.4 0 0 0 0-3.394L6.496.725a2.4 2.4 0 0 0-3.394 0z"/></symbol><symbol id="icon-eva_menu_burger_close" viewBox="0 0 32 32"><path fill="#fcfcfc" d="M28.614 1.13 16 13.744 3.386 1.13a1.594 1.594 0 0 0-2.207.049 1.596 1.596 0 0 0-.049 2.207L13.738 16 1.127 28.611a1.6 1.6 0 0 0-.029 2.284 1.579 1.579 0 0 0 1.147.468 1.616 1.616 0 0 0 1.137-.493L16 18.259l12.614 12.614a1.6 1.6 0 0 0 2.207-.049 1.596 1.596 0 0 0 .049-2.207L18.256 16.003 30.87 3.385a1.6 1.6 0 0 0 .029-2.284 1.579 1.579 0 0 0-1.147-.468 1.601 1.601 0 0 0-1.137.494v.003z" style="fill:var(--color2,#fcfcfc)"/></symbol></defs></svg>