<svg aria-hidden="true" style="position: absolute; width: 0; height: 0; overflow: hidden;" version="1.1"
    xmlns="http://www.w3.org/2000/svg" xmlns:xlink="http://www.w3.org/1999/xlink">
  <defs>
    <symbol id="icon_close" viewBox="0 0 32 32">
      <path d="M17.253 16l7.369-7.369c0.146-0.17 0.222-0.389 0.213-0.612s-0.101-0.436-0.26-0.594c-0.158-0.158-0.371-0.251-0.594-0.26s-0.443 0.067-0.613 0.213l-7.369 7.369-7.369-7.378c-0.167-0.167-0.394-0.261-0.631-0.261s-0.464 0.094-0.631 0.261c-0.167 0.167-0.261 0.394-0.261 0.631s0.094 0.464 0.261 0.631l7.378 7.369-7.378 7.369c-0.093 0.080-0.169 0.178-0.222 0.288s-0.083 0.23-0.088 0.353c-0.005 0.122 0.016 0.245 0.061 0.359s0.112 0.218 0.199 0.304c0.087 0.087 0.19 0.154 0.304 0.199s0.236 0.065 0.359 0.061c0.122-0.005 0.243-0.035 0.353-0.088s0.208-0.129 0.288-0.222l7.378-7.369 7.369 7.369c0.17 0.146 0.389 0.222 0.613 0.213s0.436-0.101 0.594-0.26c0.158-0.158 0.251-0.371 0.26-0.594s-0.067-0.442-0.213-0.612l-7.369-7.369z">
      </path>
    </symbol>
    <symbol id="icon_arrow" viewBox="0 0 32 32">
      <path d="M10.586 3.272c-0.375 0.375-0.586 0.884-0.586 1.414s0.211 1.039 0.586 1.414l9.9 9.9-9.9 9.9c-0.364 0.377-0.566 0.882-0.561 1.407s0.215 1.026 0.586 1.397c0.371 0.371 0.872 0.581 1.397 0.586s1.030-0.197 1.407-0.561l11.314-11.314c0.375-0.375 0.586-0.884 0.586-1.414s-0.211-1.039-0.586-1.414l-11.314-11.314c-0.375-0.375-0.884-0.586-1.414-0.586s-1.039 0.211-1.414 0.586v0z">
      </path>
    </symbol>
    <symbol id="products-arrow" viewBox="0 0 82 32">
      <path d="M81.414 17.414a2 2 0 0 0 0-2.828L68.686 1.858a2 2 0 1 0-2.828 2.828L77.172 16 65.858 27.314a2 2 0 1 0 2.828 2.828l12.728-12.728zM0 18h80v-4H0v4z"/>
    </symbol>
    <symbol id="chevron-up" viewBox="0 0 24 28">
      <path d="m18.203 17.797 1.594-1.594a.99.99 0 0 0 0-1.406l-7.094-7.094a.99.99 0 0 0-1.406 0l-7.094 7.094a.99.99 0 0 0 0 1.406l1.594 1.594a.99.99 0 0 0 1.406 0L12 13l4.797 4.797a.99.99 0 0 0 1.406 0zM24 14c0 6.625-5.375 12-12 12S0 20.625 0 14 5.375 2 12 2s12 5.375 12 12z"/>
    </symbol>
    <symbol id="icon-eva_menu-fill" viewBox="0 0 32 32">
      <path d="M26.733 14.667H5.266c-.7 0-1.267.567-1.267 1.267v.133c0 .7.567 1.267 1.267 1.267h21.467c.7 0 1.267-.567 1.267-1.267v-.133c0-.7-.567-1.267-1.267-1.267zM26.733 21.333H5.266c-.7 0-1.267.567-1.267 1.267v.133c0 .7.567 1.267 1.267 1.267h21.467c.7 0 1.267-.567 1.267-1.267V22.6c0-.7-.567-1.267-1.267-1.267zM26.733 8H5.266c-.7 0-1.267.567-1.267 1.267V9.4c0 .7.567 1.267 1.267 1.267h21.467c.7 0 1.267-.567 1.267-1.267v-.133C28 8.567 27.433 8 26.733 8z" />
    </symbol>
    <symbol id="icon-eva_menu_burger_close" viewBox="0 0 32 32">
      <path d="M28.614 1.13 16 13.744 3.386 1.13a1.594 1.594 0 0 0-2.207.049 1.596 1.596 0 0 0-.049 2.207L13.738 16 1.127 28.611a1.6 1.6 0 0 0-.029 2.284 1.579 1.579 0 0 0 1.147.468 1.616 1.616 0 0 0 1.137-.493L16 18.259l12.614 12.614a1.6 1.6 0 0 0 2.207-.049 1.596 1.596 0 0 0 .049-2.207L18.256 16.003 30.87 3.385a1.6 1.6 0 0 0 .029-2.284 1.579 1.579 0 0 0-1.147-.468 1.601 1.601 0 0 0-1.137.494v.003z" />
    </symbol>
    <symbol id="icon-Cursor" viewBox="0 0 32 32">
      <path stroke-width="1.333" d="m12.031 9.341 7.289 6.803c1.247 1.164.558 3.255-1.138 3.449l-2.745.314a3.331 3.331 0 0 0-1.851.834l-1.582 1.424c-1.287 1.158-3.338.245-3.338-1.487v-9.876c0-1.749 2.086-2.655 3.365-1.462z"/>
    </symbol>
    <symbol id="facebook" viewBox="0 0 16 32">
      <path d="M14.143 15.972h-4.034v14.865h-6.112v-14.865h-2.907v-5.224h2.907v-3.381c0-2.418 1.142-6.203 6.166-6.203l4.527 0.019v5.071h-3.285c-0.539 0-1.296 0.271-1.296 1.424v3.075h4.567l-0.534 5.219z"></path>
    </symbol>
    <symbol id="telegram" viewBox="0 0 44 32">
      <path d="M17.343 21.048l-0.675 8.86c0.966 0 1.384-0.387 1.885-0.852l4.527-4.038 9.381 6.412c1.72 0.895 2.933 0.424 3.397-1.477l6.157-26.929 0.002-0.002c0.546-2.374-0.92-3.302-2.596-2.72l-36.194 12.933c-2.47 0.895-2.433 2.18-0.42 2.762l9.253 2.686 21.494-12.552c1.012-0.625 1.931-0.279 1.175 0.346l-17.386 14.57z">
      </path>
    </symbol>
    <symbol id="github" viewBox="0 0 32 32">
      <path d="M16 0c-8.788 0-16 7.212-16 16 0 7.499 5.262 14.312 12.25 16v-5.293c-0.692 0.152-1.33 0.156-2.034-0.052-0.946-0.279-1.714-0.909-2.284-1.869-0.364-0.613-1.008-1.278-1.68-1.23l-0.165-1.868c1.453-0.124 2.711 0.886 3.457 2.14 0.332 0.558 0.713 0.884 1.203 1.029 0.473 0.14 0.982 0.072 1.574-0.137 0.149-1.186 0.692-1.63 1.102-2.255-4.167-0.622-5.828-2.833-6.488-4.579-0.874-2.317-0.405-5.212 1.14-7.041 0.030-0.036 0.084-0.129 0.063-0.194-0.708-2.139 0.155-3.909 0.187-4.097 0.817 0.242 0.95-0.243 3.551 1.337l0.449 0.27c0.188 0.112 0.129 0.048 0.317 0.034 1.086-0.295 2.23-0.458 3.358-0.472 1.136 0.015 2.273 0.178 3.404 0.484l0.145 0.015c-0.013-0.002 0.040-0.009 0.127-0.062 3.248-1.968 3.132-1.324 4.003-1.608 0.032 0.188 0.883 1.987 0.182 4.099-0.095 0.291 2.816 2.956 1.203 7.235-0.659 1.746-2.32 3.957-6.487 4.578 0.534 0.814 1.176 1.248 1.173 2.928v6.608c6.988-1.688 12.25-8.501 12.25-16 0-8.788-7.212-16-16-16z">
      </path>
    </symbol>
  </defs>
</svg>